<svg xmlns="http://www.w3.org/2000/svg" xmlns:xlink="http://www.w3.org/1999/xlink" width="600" height="400" viewBox="0 0 2400 1600">
<defs>
  <clipPath id="clip790">
    <rect x="0" y="0" width="2400" height="1600"></rect>
  </clipPath>
</defs>
<path clip-path="url(#clip790)" d="M0 1600 L2400 1600 L2400 0 L0 0  Z" fill="#ffffff" fill-rule="evenodd" fill-opacity="1"></path>
<defs>
  <clipPath id="clip791">
    <rect x="480" y="0" width="1681" height="1600"></rect>
  </clipPath>
</defs>
<path clip-path="url(#clip790)" d="M112.177 1486.45 L2352.76 1486.45 L2352.76 123.472 L112.177 123.472  Z" fill="#ffffff" fill-rule="evenodd" fill-opacity="1"></path>
<defs>
  <clipPath id="clip792">
    <rect x="112" y="123" width="2242" height="1364"></rect>
  </clipPath>
</defs>
<polyline clip-path="url(#clip792)" style="stroke:#000000; stroke-linecap:round; stroke-linejoin:round; stroke-width:2; stroke-opacity:0.1; fill:none" points="175.59,1486.45 175.59,123.472 "></polyline>
<polyline clip-path="url(#clip792)" style="stroke:#000000; stroke-linecap:round; stroke-linejoin:round; stroke-width:2; stroke-opacity:0.1; fill:none" points="566.612,1486.45 566.612,123.472 "></polyline>
<polyline clip-path="url(#clip792)" style="stroke:#000000; stroke-linecap:round; stroke-linejoin:round; stroke-width:2; stroke-opacity:0.1; fill:none" points="957.634,1486.45 957.634,123.472 "></polyline>
<polyline clip-path="url(#clip792)" style="stroke:#000000; stroke-linecap:round; stroke-linejoin:round; stroke-width:2; stroke-opacity:0.1; fill:none" points="1348.66,1486.45 1348.66,123.472 "></polyline>
<polyline clip-path="url(#clip792)" style="stroke:#000000; stroke-linecap:round; stroke-linejoin:round; stroke-width:2; stroke-opacity:0.1; fill:none" points="1739.68,1486.45 1739.68,123.472 "></polyline>
<polyline clip-path="url(#clip792)" style="stroke:#000000; stroke-linecap:round; stroke-linejoin:round; stroke-width:2; stroke-opacity:0.1; fill:none" points="2130.7,1486.45 2130.7,123.472 "></polyline>
<polyline clip-path="url(#clip792)" style="stroke:#000000; stroke-linecap:round; stroke-linejoin:round; stroke-width:2; stroke-opacity:0.1; fill:none" points="112.177,1299.07 2352.76,1299.07 "></polyline>
<polyline clip-path="url(#clip792)" style="stroke:#000000; stroke-linecap:round; stroke-linejoin:round; stroke-width:2; stroke-opacity:0.1; fill:none" points="112.177,1027.83 2352.76,1027.83 "></polyline>
<polyline clip-path="url(#clip792)" style="stroke:#000000; stroke-linecap:round; stroke-linejoin:round; stroke-width:2; stroke-opacity:0.1; fill:none" points="112.177,756.584 2352.76,756.584 "></polyline>
<polyline clip-path="url(#clip792)" style="stroke:#000000; stroke-linecap:round; stroke-linejoin:round; stroke-width:2; stroke-opacity:0.1; fill:none" points="112.177,485.34 2352.76,485.34 "></polyline>
<polyline clip-path="url(#clip792)" style="stroke:#000000; stroke-linecap:round; stroke-linejoin:round; stroke-width:2; stroke-opacity:0.1; fill:none" points="112.177,214.095 2352.76,214.095 "></polyline>
<polyline clip-path="url(#clip790)" style="stroke:#000000; stroke-linecap:round; stroke-linejoin:round; stroke-width:4; stroke-opacity:1; fill:none" points="112.177,1486.45 2352.76,1486.45 "></polyline>
<polyline clip-path="url(#clip790)" style="stroke:#000000; stroke-linecap:round; stroke-linejoin:round; stroke-width:4; stroke-opacity:1; fill:none" points="175.59,1486.45 175.59,1467.55 "></polyline>
<polyline clip-path="url(#clip790)" style="stroke:#000000; stroke-linecap:round; stroke-linejoin:round; stroke-width:4; stroke-opacity:1; fill:none" points="566.612,1486.45 566.612,1467.55 "></polyline>
<polyline clip-path="url(#clip790)" style="stroke:#000000; stroke-linecap:round; stroke-linejoin:round; stroke-width:4; stroke-opacity:1; fill:none" points="957.634,1486.45 957.634,1467.55 "></polyline>
<polyline clip-path="url(#clip790)" style="stroke:#000000; stroke-linecap:round; stroke-linejoin:round; stroke-width:4; stroke-opacity:1; fill:none" points="1348.66,1486.45 1348.66,1467.55 "></polyline>
<polyline clip-path="url(#clip790)" style="stroke:#000000; stroke-linecap:round; stroke-linejoin:round; stroke-width:4; stroke-opacity:1; fill:none" points="1739.68,1486.45 1739.68,1467.55 "></polyline>
<polyline clip-path="url(#clip790)" style="stroke:#000000; stroke-linecap:round; stroke-linejoin:round; stroke-width:4; stroke-opacity:1; fill:none" points="2130.7,1486.45 2130.7,1467.55 "></polyline>
<path clip-path="url(#clip790)" d="M175.59 1517.37 Q171.979 1517.37 170.15 1520.93 Q168.344 1524.47 168.344 1531.6 Q168.344 1538.71 170.15 1542.27 Q171.979 1545.82 175.59 1545.82 Q179.224 1545.82 181.03 1542.27 Q182.858 1538.71 182.858 1531.6 Q182.858 1524.47 181.03 1520.93 Q179.224 1517.37 175.59 1517.37 M175.59 1513.66 Q181.4 1513.66 184.455 1518.27 Q187.534 1522.85 187.534 1531.6 Q187.534 1540.33 184.455 1544.94 Q181.4 1549.52 175.59 1549.52 Q169.78 1549.52 166.701 1544.94 Q163.645 1540.33 163.645 1531.6 Q163.645 1522.85 166.701 1518.27 Q169.78 1513.66 175.59 1513.66 Z" fill="#000000" fill-rule="nonzero" fill-opacity="1"></path><path clip-path="url(#clip790)" d="M556.89 1514.29 L575.246 1514.29 L575.246 1518.22 L561.172 1518.22 L561.172 1526.7 Q562.19 1526.35 563.209 1526.19 Q564.227 1526 565.246 1526 Q571.033 1526 574.413 1529.17 Q577.792 1532.34 577.792 1537.76 Q577.792 1543.34 574.32 1546.44 Q570.848 1549.52 564.528 1549.52 Q562.352 1549.52 560.084 1549.15 Q557.839 1548.78 555.431 1548.04 L555.431 1543.34 Q557.515 1544.47 559.737 1545.03 Q561.959 1545.58 564.436 1545.58 Q568.44 1545.58 570.778 1543.48 Q573.116 1541.37 573.116 1537.76 Q573.116 1534.15 570.778 1532.04 Q568.44 1529.94 564.436 1529.94 Q562.561 1529.94 560.686 1530.35 Q558.834 1530.77 556.89 1531.65 L556.89 1514.29 Z" fill="#000000" fill-rule="nonzero" fill-opacity="1"></path><path clip-path="url(#clip790)" d="M932.321 1544.91 L939.96 1544.91 L939.96 1518.55 L931.65 1520.21 L931.65 1515.95 L939.914 1514.29 L944.59 1514.29 L944.59 1544.91 L952.229 1544.91 L952.229 1548.85 L932.321 1548.85 L932.321 1544.91 Z" fill="#000000" fill-rule="nonzero" fill-opacity="1"></path><path clip-path="url(#clip790)" d="M971.673 1517.37 Q968.062 1517.37 966.233 1520.93 Q964.428 1524.47 964.428 1531.6 Q964.428 1538.71 966.233 1542.27 Q968.062 1545.82 971.673 1545.82 Q975.307 1545.82 977.113 1542.27 Q978.941 1538.71 978.941 1531.6 Q978.941 1524.47 977.113 1520.93 Q975.307 1517.37 971.673 1517.37 M971.673 1513.66 Q977.483 1513.66 980.539 1518.27 Q983.617 1522.85 983.617 1531.6 Q983.617 1540.33 980.539 1544.94 Q977.483 1549.52 971.673 1549.52 Q965.863 1549.52 962.784 1544.94 Q959.729 1540.33 959.729 1531.6 Q959.729 1522.85 962.784 1518.27 Q965.863 1513.66 971.673 1513.66 Z" fill="#000000" fill-rule="nonzero" fill-opacity="1"></path><path clip-path="url(#clip790)" d="M1323.84 1544.91 L1331.48 1544.91 L1331.48 1518.55 L1323.17 1520.21 L1323.17 1515.95 L1331.43 1514.29 L1336.11 1514.29 L1336.11 1544.91 L1343.75 1544.91 L1343.75 1548.85 L1323.84 1548.85 L1323.84 1544.91 Z" fill="#000000" fill-rule="nonzero" fill-opacity="1"></path><path clip-path="url(#clip790)" d="M1353.24 1514.29 L1371.6 1514.29 L1371.6 1518.22 L1357.52 1518.22 L1357.52 1526.7 Q1358.54 1526.35 1359.56 1526.19 Q1360.58 1526 1361.6 1526 Q1367.38 1526 1370.76 1529.17 Q1374.14 1532.34 1374.14 1537.76 Q1374.14 1543.34 1370.67 1546.44 Q1367.2 1549.52 1360.88 1549.52 Q1358.7 1549.52 1356.43 1549.15 Q1354.19 1548.78 1351.78 1548.04 L1351.78 1543.34 Q1353.86 1544.47 1356.09 1545.03 Q1358.31 1545.58 1360.79 1545.58 Q1364.79 1545.58 1367.13 1543.48 Q1369.47 1541.37 1369.47 1537.76 Q1369.47 1534.15 1367.13 1532.04 Q1364.79 1529.94 1360.79 1529.94 Q1358.91 1529.94 1357.04 1530.35 Q1355.18 1530.77 1353.24 1531.65 L1353.24 1514.29 Z" fill="#000000" fill-rule="nonzero" fill-opacity="1"></path><path clip-path="url(#clip790)" d="M1718.45 1544.91 L1734.77 1544.91 L1734.77 1548.85 L1712.83 1548.85 L1712.83 1544.91 Q1715.49 1542.16 1720.07 1537.53 Q1724.68 1532.88 1725.86 1531.53 Q1728.1 1529.01 1728.98 1527.27 Q1729.89 1525.51 1729.89 1523.82 Q1729.89 1521.07 1727.94 1519.33 Q1726.02 1517.6 1722.92 1517.6 Q1720.72 1517.6 1718.27 1518.36 Q1715.84 1519.13 1713.06 1520.68 L1713.06 1515.95 Q1715.88 1514.82 1718.34 1514.24 Q1720.79 1513.66 1722.83 1513.66 Q1728.2 1513.66 1731.39 1516.35 Q1734.58 1519.03 1734.58 1523.52 Q1734.58 1525.65 1733.77 1527.57 Q1732.99 1529.47 1730.88 1532.07 Q1730.3 1532.74 1727.2 1535.95 Q1724.1 1539.15 1718.45 1544.91 Z" fill="#000000" fill-rule="nonzero" fill-opacity="1"></path><path clip-path="url(#clip790)" d="M1754.58 1517.37 Q1750.97 1517.37 1749.15 1520.93 Q1747.34 1524.47 1747.34 1531.6 Q1747.34 1538.71 1749.15 1542.27 Q1750.97 1545.82 1754.58 1545.82 Q1758.22 1545.82 1760.02 1542.27 Q1761.85 1538.71 1761.85 1531.6 Q1761.85 1524.47 1760.02 1520.93 Q1758.22 1517.37 1754.58 1517.37 M1754.58 1513.66 Q1760.4 1513.66 1763.45 1518.27 Q1766.53 1522.85 1766.53 1531.6 Q1766.53 1540.33 1763.45 1544.94 Q1760.4 1549.52 1754.58 1549.52 Q1748.77 1549.52 1745.7 1544.94 Q1742.64 1540.33 1742.64 1531.6 Q1742.64 1522.85 1745.7 1518.27 Q1748.77 1513.66 1754.58 1513.66 Z" fill="#000000" fill-rule="nonzero" fill-opacity="1"></path><path clip-path="url(#clip790)" d="M2109.97 1544.91 L2126.29 1544.91 L2126.29 1548.85 L2104.35 1548.85 L2104.35 1544.91 Q2107.01 1542.16 2111.59 1537.53 Q2116.2 1532.88 2117.38 1531.53 Q2119.62 1529.01 2120.5 1527.27 Q2121.41 1525.51 2121.41 1523.82 Q2121.41 1521.07 2119.46 1519.33 Q2117.54 1517.6 2114.44 1517.6 Q2112.24 1517.6 2109.79 1518.36 Q2107.35 1519.13 2104.58 1520.68 L2104.58 1515.95 Q2107.4 1514.82 2109.85 1514.24 Q2112.31 1513.66 2114.35 1513.66 Q2119.72 1513.66 2122.91 1516.35 Q2126.1 1519.03 2126.1 1523.52 Q2126.1 1525.65 2125.29 1527.57 Q2124.51 1529.47 2122.4 1532.07 Q2121.82 1532.74 2118.72 1535.95 Q2115.62 1539.15 2109.97 1544.91 Z" fill="#000000" fill-rule="nonzero" fill-opacity="1"></path><path clip-path="url(#clip790)" d="M2136.15 1514.29 L2154.51 1514.29 L2154.51 1518.22 L2140.43 1518.22 L2140.43 1526.7 Q2141.45 1526.35 2142.47 1526.19 Q2143.49 1526 2144.51 1526 Q2150.29 1526 2153.67 1529.17 Q2157.05 1532.34 2157.05 1537.76 Q2157.05 1543.34 2153.58 1546.44 Q2150.11 1549.52 2143.79 1549.52 Q2141.61 1549.52 2139.35 1549.15 Q2137.1 1548.78 2134.69 1548.04 L2134.69 1543.34 Q2136.78 1544.47 2139 1545.03 Q2141.22 1545.58 2143.7 1545.58 Q2147.7 1545.58 2150.04 1543.48 Q2152.38 1541.37 2152.38 1537.76 Q2152.38 1534.15 2150.04 1532.04 Q2147.7 1529.94 2143.7 1529.94 Q2141.82 1529.94 2139.95 1530.35 Q2138.1 1530.77 2136.15 1531.65 L2136.15 1514.29 Z" fill="#000000" fill-rule="nonzero" fill-opacity="1"></path><polyline clip-path="url(#clip790)" style="stroke:#000000; stroke-linecap:round; stroke-linejoin:round; stroke-width:4; stroke-opacity:1; fill:none" points="112.177,1486.45 112.177,123.472 "></polyline>
<polyline clip-path="url(#clip790)" style="stroke:#000000; stroke-linecap:round; stroke-linejoin:round; stroke-width:4; stroke-opacity:1; fill:none" points="112.177,1299.07 131.075,1299.07 "></polyline>
<polyline clip-path="url(#clip790)" style="stroke:#000000; stroke-linecap:round; stroke-linejoin:round; stroke-width:4; stroke-opacity:1; fill:none" points="112.177,1027.83 131.075,1027.83 "></polyline>
<polyline clip-path="url(#clip790)" style="stroke:#000000; stroke-linecap:round; stroke-linejoin:round; stroke-width:4; stroke-opacity:1; fill:none" points="112.177,756.584 131.075,756.584 "></polyline>
<polyline clip-path="url(#clip790)" style="stroke:#000000; stroke-linecap:round; stroke-linejoin:round; stroke-width:4; stroke-opacity:1; fill:none" points="112.177,485.34 131.075,485.34 "></polyline>
<polyline clip-path="url(#clip790)" style="stroke:#000000; stroke-linecap:round; stroke-linejoin:round; stroke-width:4; stroke-opacity:1; fill:none" points="112.177,214.095 131.075,214.095 "></polyline>
<path clip-path="url(#clip790)" d="M64.2328 1284.87 Q60.6217 1284.87 58.793 1288.44 Q56.9875 1291.98 56.9875 1299.11 Q56.9875 1306.21 58.793 1309.78 Q60.6217 1313.32 64.2328 1313.32 Q67.867 1313.32 69.6726 1309.78 Q71.5013 1306.21 71.5013 1299.11 Q71.5013 1291.98 69.6726 1288.44 Q67.867 1284.87 64.2328 1284.87 M64.2328 1281.17 Q70.0429 1281.17 73.0985 1285.77 Q76.1772 1290.36 76.1772 1299.11 Q76.1772 1307.83 73.0985 1312.44 Q70.0429 1317.02 64.2328 1317.02 Q58.4226 1317.02 55.344 1312.44 Q52.2884 1307.83 52.2884 1299.11 Q52.2884 1290.36 55.344 1285.77 Q58.4226 1281.17 64.2328 1281.17 Z" fill="#000000" fill-rule="nonzero" fill-opacity="1"></path><path clip-path="url(#clip790)" d="M59.8578 1041.17 L76.1772 1041.17 L76.1772 1045.11 L54.2328 1045.11 L54.2328 1041.17 Q56.8949 1038.42 61.4782 1033.79 Q66.0846 1029.14 67.2652 1027.79 Q69.5105 1025.27 70.3902 1023.53 Q71.2929 1021.78 71.2929 1020.09 Q71.2929 1017.33 69.3485 1015.59 Q67.4272 1013.86 64.3254 1013.86 Q62.1263 1013.86 59.6726 1014.62 Q57.2421 1015.39 54.4643 1016.94 L54.4643 1012.21 Q57.2884 1011.08 59.7421 1010.5 Q62.1958 1009.92 64.2328 1009.92 Q69.6031 1009.92 72.7976 1012.61 Q75.992 1015.29 75.992 1019.78 Q75.992 1021.91 75.1818 1023.84 Q74.3948 1025.73 72.2883 1028.33 Q71.7096 1029 68.6078 1032.21 Q65.5059 1035.41 59.8578 1041.17 Z" fill="#000000" fill-rule="nonzero" fill-opacity="1"></path><path clip-path="url(#clip790)" d="M66.5939 743.378 L54.7884 761.827 L66.5939 761.827 L66.5939 743.378 M65.367 739.304 L71.2466 739.304 L71.2466 761.827 L76.1772 761.827 L76.1772 765.716 L71.2466 765.716 L71.2466 773.864 L66.5939 773.864 L66.5939 765.716 L50.9921 765.716 L50.9921 761.202 L65.367 739.304 Z" fill="#000000" fill-rule="nonzero" fill-opacity="1"></path><path clip-path="url(#clip790)" d="M64.6495 483.476 Q61.5013 483.476 59.6495 485.629 Q57.8208 487.782 57.8208 491.532 Q57.8208 495.259 59.6495 497.435 Q61.5013 499.587 64.6495 499.587 Q67.7976 499.587 69.6263 497.435 Q71.4781 495.259 71.4781 491.532 Q71.4781 487.782 69.6263 485.629 Q67.7976 483.476 64.6495 483.476 M73.9318 468.824 L73.9318 473.083 Q72.1726 472.249 70.367 471.81 Q68.5846 471.37 66.8254 471.37 Q62.1958 471.37 59.7421 474.495 Q57.3115 477.62 56.9643 483.939 Q58.33 481.925 60.3902 480.861 Q62.4504 479.773 64.9272 479.773 Q70.1355 479.773 73.1448 482.944 Q76.1772 486.092 76.1772 491.532 Q76.1772 496.856 73.029 500.073 Q69.8809 503.291 64.6495 503.291 Q58.6541 503.291 55.4828 498.708 Q52.3116 494.101 52.3116 485.374 Q52.3116 477.18 56.2004 472.319 Q60.0893 467.435 66.6402 467.435 Q68.3994 467.435 70.1818 467.782 Q71.9874 468.129 73.9318 468.824 Z" fill="#000000" fill-rule="nonzero" fill-opacity="1"></path><path clip-path="url(#clip790)" d="M64.3254 214.963 Q60.9921 214.963 59.0708 216.746 Q57.1726 218.528 57.1726 221.653 Q57.1726 224.778 59.0708 226.561 Q60.9921 228.343 64.3254 228.343 Q67.6587 228.343 69.58 226.561 Q71.5013 224.755 71.5013 221.653 Q71.5013 218.528 69.58 216.746 Q67.6819 214.963 64.3254 214.963 M59.6495 212.973 Q56.6402 212.232 54.9504 210.172 Q53.2838 208.112 53.2838 205.149 Q53.2838 201.005 56.2236 198.598 Q59.1865 196.19 64.3254 196.19 Q69.4874 196.19 72.4272 198.598 Q75.367 201.005 75.367 205.149 Q75.367 208.112 73.6772 210.172 Q72.0105 212.232 69.0244 212.973 Q72.404 213.76 74.279 216.051 Q76.1772 218.343 76.1772 221.653 Q76.1772 226.676 73.0985 229.361 Q70.0429 232.047 64.3254 232.047 Q58.6078 232.047 55.5291 229.361 Q52.4736 226.676 52.4736 221.653 Q52.4736 218.343 54.3717 216.051 Q56.2699 213.76 59.6495 212.973 M57.9365 205.588 Q57.9365 208.274 59.6032 209.778 Q61.293 211.283 64.3254 211.283 Q67.3346 211.283 69.0244 209.778 Q70.7374 208.274 70.7374 205.588 Q70.7374 202.903 69.0244 201.399 Q67.3346 199.894 64.3254 199.894 Q61.293 199.894 59.6032 201.399 Q57.9365 202.903 57.9365 205.588 Z" fill="#000000" fill-rule="nonzero" fill-opacity="1"></path><path clip-path="url(#clip790)" d="M1183.73 12.096 L1191.92 12.096 L1191.92 72.576 L1183.73 72.576 L1183.73 12.096 Z" fill="#000000" fill-rule="nonzero" fill-opacity="1"></path><path clip-path="url(#clip790)" d="M1204.11 46.5287 L1225.94 46.5287 L1225.94 53.1722 L1204.11 53.1722 L1204.11 46.5287 Z" fill="#000000" fill-rule="nonzero" fill-opacity="1"></path><path clip-path="url(#clip790)" d="M1248.87 72.576 L1225.78 12.096 L1234.33 12.096 L1253.49 63.0159 L1272.69 12.096 L1281.2 12.096 L1258.15 72.576 L1248.87 72.576 Z" fill="#000000" fill-rule="nonzero" fill-opacity="1"></path><polyline clip-path="url(#clip792)" style="stroke:#009af9; stroke-linecap:round; stroke-linejoin:round; stroke-width:4; stroke-opacity:1; fill:none" points="175.59,164.842 175.59,164.842 175.593,164.842 175.62,164.842 175.894,164.841 178.631,164.83 206.003,164.716 479.718,163.58 1416.29,162.047 1916.25,209.001 2106.09,336.494 2205.17,540.331 2249.85,747.188 2270.9,929.256 2280.67,1073.11 2284.71,1165.72 2286.96,1241.01 2287.91,1285.64 2288.48,1320.72 2288.89,1355.09 2289.14,1385.92 2289.26,1406.96 2289.31,1422.74 2289.33,1434.02 2289.34,1441.7 2289.34,1445.89 2289.34,1447.87 "></polyline>
<path clip-path="url(#clip790)" d="M186.863 1441.02 L463.351 1441.02 L463.351 1337.34 L186.863 1337.34  Z" fill="#ffffff" fill-rule="evenodd" fill-opacity="1"></path>
<polyline clip-path="url(#clip790)" style="stroke:#000000; stroke-linecap:round; stroke-linejoin:round; stroke-width:4; stroke-opacity:1; fill:none" points="186.863,1441.02 463.351,1441.02 463.351,1337.34 186.863,1337.34 186.863,1441.02 "></polyline>
<polyline clip-path="url(#clip790)" style="stroke:#009af9; stroke-linecap:round; stroke-linejoin:round; stroke-width:4; stroke-opacity:1; fill:none" points="211.758,1389.18 361.13,1389.18 "></polyline>
<path clip-path="url(#clip790)" d="M399.868 1408.86 Q398.063 1413.49 396.35 1414.9 Q394.637 1416.32 391.766 1416.32 L388.364 1416.32 L388.364 1412.75 L390.864 1412.75 Q392.623 1412.75 393.595 1411.92 Q394.567 1411.08 395.748 1407.98 L396.512 1406.04 L386.026 1380.53 L390.54 1380.53 L398.641 1400.81 L406.743 1380.53 L411.257 1380.53 L399.868 1408.86 Z" fill="#000000" fill-rule="nonzero" fill-opacity="1"></path><path clip-path="url(#clip790)" d="M418.549 1402.52 L426.188 1402.52 L426.188 1376.15 L417.877 1377.82 L417.877 1373.56 L426.141 1371.9 L430.817 1371.9 L430.817 1402.52 L438.456 1402.52 L438.456 1406.46 L418.549 1406.46 L418.549 1402.52 Z" fill="#000000" fill-rule="nonzero" fill-opacity="1"></path></svg>